<?xml version="1.0" encoding="utf-8"?>
<!-- Generator: Adobe Illustrator 16.0.0, SVG Export Plug-In . SVG Version: 6.00 Build 0)  -->
<svg version="1.2" baseProfile="tiny" xmlns="http://www.w3.org/2000/svg" xmlns:xlink="http://www.w3.org/1999/xlink" x="0px"
	 y="0px" width="53.86px" height="45.35px" viewBox="0 0 53.86 45.35" xml:space="preserve">
<g id="PCB" display="none">
	<g id="copper0" display="inline">
		<circle id="connector7pad" fill="#FFFFFF" stroke="#EBC96C" stroke-miterlimit="10" cx="5.427" cy="41.89" r="0.992"/>
		<circle id="connector6pad" fill="#FFFFFF" stroke="#EBC96C" stroke-miterlimit="10" cx="12.668" cy="41.89" r="0.992"/>
		<circle id="connector5pad_1_" fill="#FFFFFF" stroke="#EBC96C" stroke-miterlimit="10" cx="19.827" cy="41.89" r="0.992"/>
		<circle id="connector4pad_1_" fill="#FFFFFF" stroke="#EBC96C" stroke-miterlimit="10" cx="27.068" cy="41.89" r="0.992"/>
		<circle id="connector3pad_1_" fill="#FFFFFF" stroke="#EBC96C" stroke-miterlimit="10" cx="34.267" cy="41.889" r="0.992"/>
		<circle id="connector2pad_1_" fill="#FFFFFF" stroke="#EBC96C" stroke-miterlimit="10" cx="41.682" cy="41.89" r="0.992"/>
		<circle id="connector1pad_1_" fill="#FFFFFF" stroke="#EBC96C" stroke-miterlimit="10" cx="48.881" cy="41.889" r="0.992"/>
	</g>
	<g id="silkscreen" display="inline">
		<rect x="0.636" y="0.535" fill="none" stroke="#FFFFFF" stroke-miterlimit="10" width="52.589" height="44.279"/>
	</g>
</g>
<g id="breadboard">
	<path fill="#175C7A" stroke="#000000" stroke-miterlimit="10" d="M52.938,37.453c0,6.627-0.373,7-7,7H7.677c-6.627,0-7-0.373-7-7
		V7.887c0-6.627,0.373-7,7-7h38.26c6.627,0,7,0.373,7,7V37.453z"/>
	
		<ellipse id="connector5pad" fill="#FFFFFF" stroke="#EBC96C" stroke-miterlimit="10" cx="5.257" cy="39.139" rx="2.835" ry="2.76"/>
	
		<ellipse id="connector4pad" fill="#FFFFFF" stroke="#EBC96C" stroke-miterlimit="10" cx="12.444" cy="38.989" rx="2.835" ry="2.76"/>
	
		<ellipse id="connector3pad" fill="#FFFFFF" stroke="#EBC96C" stroke-miterlimit="10" cx="19.603" cy="38.989" rx="2.834" ry="2.76"/>
	<path id="connector2pad" fill="#FFFFFF" stroke="#EBC96C" stroke-miterlimit="10" d="M29.679,38.989c0-1.526-1.27-2.76-2.836-2.76
		c-1.569,0-2.833,1.233-2.833,2.76c0,1.521,1.264,2.76,2.833,2.76C28.409,41.749,29.679,40.511,29.679,38.989z"/>
	<path id="connector1pad" fill="#FFFFFF" stroke="#EBC96C" stroke-miterlimit="10" d="M36.878,38.989c0-1.526-1.27-2.76-2.836-2.76
		c-1.568,0-2.833,1.233-2.833,2.76c0,1.521,1.265,2.76,2.833,2.76C35.608,41.749,36.878,40.511,36.878,38.989z"/>
	<path id="connector2pad_2_" fill="#FFFFFF" stroke="#EBC96C" stroke-miterlimit="10" d="M44.293,38.989
		c0-1.526-1.27-2.76-2.836-2.76c-1.568,0-2.833,1.233-2.833,2.76c0,1.521,1.265,2.76,2.833,2.76
		C43.023,41.749,44.293,40.511,44.293,38.989z"/>
	<path id="connector1pad_2_" fill="#FFFFFF" stroke="#EBC96C" stroke-miterlimit="10" d="M51.492,38.989
		c0-1.526-1.27-2.76-2.836-2.76c-1.568,0-2.833,1.233-2.833,2.76c0,1.521,1.265,2.76,2.833,2.76
		C50.223,41.749,51.492,40.511,51.492,38.989z"/>
	<path id="connector5pad_2_" fill="#FFFFFF" stroke="#000000" stroke-miterlimit="10" d="M10.613,6.509
		c0-2.344-1.902-4.252-4.254-4.252c-2.347,0-4.251,1.908-4.251,4.252s1.904,4.252,4.251,4.252
		C8.71,10.761,10.613,8.854,10.613,6.509z"/>
	<path id="connector5pad_3_" fill="#FFFFFF" stroke="#000000" stroke-miterlimit="10" d="M51.492,6.51
		c0-2.345-1.903-4.252-4.254-4.252c-2.348,0-4.252,1.908-4.252,4.252c0,2.344,1.904,4.252,4.252,4.252
		C49.589,10.762,51.492,8.854,51.492,6.51z"/>
	<rect x="22.038" y="11.729" stroke="#000000" stroke-miterlimit="10" width="9.768" height="4.376"/>
	<rect x="45.494" y="19.83" stroke="#000000" stroke-miterlimit="10" width="3.598" height="9.503"/>
	<rect x="43.898" y="13.917" stroke="#000000" stroke-miterlimit="10" width="6.009" height="2.799"/>
	<rect x="35.774" y="11.729" stroke="#000000" stroke-miterlimit="10" width="2.798" height="4.986"/>
	<rect x="35.774" y="22.414" stroke="#000000" stroke-miterlimit="10" width="3.358" height="5.393"/>
	<rect x="4.369" y="15.316" stroke="#000000" stroke-miterlimit="10" width="4.543" height="9.265"/>
	<rect x="15.346" y="13.46" stroke="#000000" stroke-miterlimit="10" width="3.461" height="4.68"/>
	<rect x="23.666" y="21.203" fill="#666766" stroke="#000000" stroke-miterlimit="10" width="3.256" height="6.096"/>
</g>
<g id="schematic" display="none">
	
		<rect x="3.583" y="3.583" display="inline" fill="none" stroke="#000000" stroke-width="0.7087" stroke-miterlimit="10" width="46.5" height="28.583"/>
	
		<line display="inline" fill="none" stroke="#000000" stroke-width="0.7087" stroke-miterlimit="10" x1="7.75" y1="32.167" x2="7.75" y2="41.917"/>
	
		<line display="inline" fill="none" stroke="#000000" stroke-width="0.7087" stroke-miterlimit="10" x1="14.015" y1="32.167" x2="14.015" y2="41.917"/>
	
		<line display="inline" fill="none" stroke="#000000" stroke-width="0.7087" stroke-miterlimit="10" x1="20.278" y1="32.167" x2="20.278" y2="41.917"/>
	
		<line display="inline" fill="none" stroke="#000000" stroke-width="0.7087" stroke-miterlimit="10" x1="26.543" y1="32.167" x2="26.543" y2="41.917"/>
	
		<line display="inline" fill="none" stroke="#000000" stroke-width="0.7087" stroke-miterlimit="10" x1="32.805" y1="32.166" x2="32.805" y2="41.916"/>
	
		<line display="inline" fill="none" stroke="#000000" stroke-width="0.7087" stroke-miterlimit="10" x1="39.07" y1="32.166" x2="39.07" y2="41.916"/>
	
		<line display="inline" fill="none" stroke="#000000" stroke-width="0.7087" stroke-miterlimit="10" x1="45.333" y1="32.166" x2="45.333" y2="41.916"/>
	<text transform="matrix(0 1 -1 0 43.0703 19.5967)" display="inline" font-family="'OCRAStd'" font-size="4.9655">scl</text>
	<text transform="matrix(0 1 -1 0 37.1113 19.5967)" display="inline" font-family="'OCRAStd'" font-size="4.9655">sda</text>
	<text transform="matrix(0 1 -1 0 31.1533 19.5967)" display="inline" font-family="'OCRAStd'" font-size="4.9655">int</text>
	<text transform="matrix(0 1 -1 0 25.1953 16.0215)" display="inline" font-family="'OCRAStd'" font-size="4.9655">addr</text>
	<text transform="matrix(0 1 -1 0 19.2363 19.5967)" display="inline" font-family="'OCRAStd'" font-size="4.9655">3v3</text>
	<text transform="matrix(0 1 -1 0 13.2778 19.5967)" display="inline" font-family="'OCRAStd'" font-size="4.9655">gnd</text>
	<text transform="matrix(0 1 -1 0 7.3193 19.5967)" display="inline" font-family="'OCRAStd'" font-size="4.9655">vin</text>
	<text transform="matrix(1 0 0 1 10.4375 11.9355)" display="inline" font-family="'OCRAStd'" font-size="6.3467">TSL2561</text>
</g>
</svg>
